<mxfile host="Electron" modified="2024-05-08T17:18:06.185Z" agent="Mozilla/5.0 (X11; Linux x86_64) AppleWebKit/537.36 (KHTML, like Gecko) draw.io/24.2.5 Chrome/120.0.6099.109 Electron/28.1.0 Safari/537.36" etag="XnNhgrWJlajgfE9Fw2ix" version="24.2.5" type="device">
  <diagram name="Página-1" id="CurySxxXu2C1Rzmgpb91">
    <mxGraphModel dx="792" dy="436" grid="1" gridSize="10" guides="1" tooltips="1" connect="1" arrows="1" fold="1" page="1" pageScale="1" pageWidth="827" pageHeight="583" math="0" shadow="0">
      <root>
        <mxCell id="0" />
        <mxCell id="1" parent="0" />
        <mxCell id="Q6l-A-WZH55Bo8x8fdeK-23" style="edgeStyle=orthogonalEdgeStyle;rounded=0;orthogonalLoop=1;jettySize=auto;html=1;exitX=0.5;exitY=1;exitDx=0;exitDy=0;" edge="1" parent="1" source="Q6l-A-WZH55Bo8x8fdeK-2" target="Q6l-A-WZH55Bo8x8fdeK-18">
          <mxGeometry relative="1" as="geometry" />
        </mxCell>
        <mxCell id="Q6l-A-WZH55Bo8x8fdeK-2" value="Esperar por señal de disponibilidad del entrelazamiento" style="rounded=0;whiteSpace=wrap;html=1;fillColor=#dae8fc;strokeColor=none;" vertex="1" parent="1">
          <mxGeometry x="257.5" y="280" width="142.5" height="50" as="geometry" />
        </mxCell>
        <mxCell id="Q6l-A-WZH55Bo8x8fdeK-15" style="edgeStyle=orthogonalEdgeStyle;rounded=0;orthogonalLoop=1;jettySize=auto;html=1;exitX=1;exitY=0.5;exitDx=0;exitDy=0;entryX=0.5;entryY=0;entryDx=0;entryDy=0;" edge="1" parent="1" source="Q6l-A-WZH55Bo8x8fdeK-4" target="Q6l-A-WZH55Bo8x8fdeK-14">
          <mxGeometry relative="1" as="geometry" />
        </mxCell>
        <mxCell id="Q6l-A-WZH55Bo8x8fdeK-4" value="Inicio de simulación" style="ellipse;whiteSpace=wrap;html=1;fillColor=#f5f5f5;fontColor=#333333;strokeColor=none;" vertex="1" parent="1">
          <mxGeometry x="90" y="20" width="120" height="60" as="geometry" />
        </mxCell>
        <mxCell id="Q6l-A-WZH55Bo8x8fdeK-22" style="edgeStyle=orthogonalEdgeStyle;rounded=0;orthogonalLoop=1;jettySize=auto;html=1;exitX=0.5;exitY=1;exitDx=0;exitDy=0;entryX=0.5;entryY=0;entryDx=0;entryDy=0;" edge="1" parent="1" source="Q6l-A-WZH55Bo8x8fdeK-13" target="Q6l-A-WZH55Bo8x8fdeK-2">
          <mxGeometry relative="1" as="geometry" />
        </mxCell>
        <mxCell id="Q6l-A-WZH55Bo8x8fdeK-13" value="Solicitar par entrelazado a RoutePrococol del camino" style="rounded=0;whiteSpace=wrap;html=1;fillColor=#dae8fc;strokeColor=none;" vertex="1" parent="1">
          <mxGeometry x="257.5" y="190" width="145" height="60" as="geometry" />
        </mxCell>
        <mxCell id="Q6l-A-WZH55Bo8x8fdeK-17" style="edgeStyle=orthogonalEdgeStyle;rounded=0;orthogonalLoop=1;jettySize=auto;html=1;exitX=1;exitY=0.5;exitDx=0;exitDy=0;" edge="1" parent="1" source="Q6l-A-WZH55Bo8x8fdeK-14" target="Q6l-A-WZH55Bo8x8fdeK-16">
          <mxGeometry relative="1" as="geometry" />
        </mxCell>
        <mxCell id="Q6l-A-WZH55Bo8x8fdeK-25" value="NO" style="edgeLabel;html=1;align=center;verticalAlign=middle;resizable=0;points=[];" vertex="1" connectable="0" parent="Q6l-A-WZH55Bo8x8fdeK-17">
          <mxGeometry x="-0.4429" y="-1" relative="1" as="geometry">
            <mxPoint as="offset" />
          </mxGeometry>
        </mxCell>
        <mxCell id="Q6l-A-WZH55Bo8x8fdeK-21" style="edgeStyle=orthogonalEdgeStyle;rounded=0;orthogonalLoop=1;jettySize=auto;html=1;exitX=0.5;exitY=1;exitDx=0;exitDy=0;" edge="1" parent="1" source="Q6l-A-WZH55Bo8x8fdeK-14" target="Q6l-A-WZH55Bo8x8fdeK-13">
          <mxGeometry relative="1" as="geometry" />
        </mxCell>
        <mxCell id="Q6l-A-WZH55Bo8x8fdeK-26" value="SI" style="edgeLabel;html=1;align=center;verticalAlign=middle;resizable=0;points=[];" vertex="1" connectable="0" parent="Q6l-A-WZH55Bo8x8fdeK-21">
          <mxGeometry x="-0.35" relative="1" as="geometry">
            <mxPoint as="offset" />
          </mxGeometry>
        </mxCell>
        <mxCell id="Q6l-A-WZH55Bo8x8fdeK-14" value="Simulación activa?" style="rhombus;whiteSpace=wrap;html=1;" vertex="1" parent="1">
          <mxGeometry x="290" y="70" width="80" height="80" as="geometry" />
        </mxCell>
        <mxCell id="Q6l-A-WZH55Bo8x8fdeK-16" value="Fin simulación" style="ellipse;whiteSpace=wrap;html=1;fillColor=#f5f5f5;fontColor=#333333;strokeColor=none;" vertex="1" parent="1">
          <mxGeometry x="510" y="80" width="120" height="60" as="geometry" />
        </mxCell>
        <mxCell id="Q6l-A-WZH55Bo8x8fdeK-24" style="edgeStyle=orthogonalEdgeStyle;rounded=0;orthogonalLoop=1;jettySize=auto;html=1;exitX=0.5;exitY=1;exitDx=0;exitDy=0;entryX=0.5;entryY=0;entryDx=0;entryDy=0;" edge="1" parent="1" source="Q6l-A-WZH55Bo8x8fdeK-18" target="Q6l-A-WZH55Bo8x8fdeK-19">
          <mxGeometry relative="1" as="geometry" />
        </mxCell>
        <mxCell id="Q6l-A-WZH55Bo8x8fdeK-18" value="Medir fidelidad del par entrelazado respecto al ideal" style="rounded=0;whiteSpace=wrap;html=1;fillColor=#dae8fc;strokeColor=none;" vertex="1" parent="1">
          <mxGeometry x="258" y="360" width="142" height="50" as="geometry" />
        </mxCell>
        <mxCell id="Q6l-A-WZH55Bo8x8fdeK-20" style="edgeStyle=orthogonalEdgeStyle;rounded=0;orthogonalLoop=1;jettySize=auto;html=1;exitX=0.5;exitY=1;exitDx=0;exitDy=0;entryX=0;entryY=0.5;entryDx=0;entryDy=0;" edge="1" parent="1" source="Q6l-A-WZH55Bo8x8fdeK-19" target="Q6l-A-WZH55Bo8x8fdeK-14">
          <mxGeometry relative="1" as="geometry">
            <Array as="points">
              <mxPoint x="329" y="490" />
              <mxPoint x="160" y="490" />
              <mxPoint x="160" y="110" />
            </Array>
          </mxGeometry>
        </mxCell>
        <mxCell id="Q6l-A-WZH55Bo8x8fdeK-19" value="Registrar resultado en el datacollector" style="rounded=0;whiteSpace=wrap;html=1;fillColor=#dae8fc;strokeColor=none;" vertex="1" parent="1">
          <mxGeometry x="257.5" y="430" width="142.5" height="40" as="geometry" />
        </mxCell>
      </root>
    </mxGraphModel>
  </diagram>
</mxfile>
